<mxfile host="Electron" modified="2024-03-05T08:12:23.881Z" agent="Mozilla/5.0 (Windows NT 10.0; Win64; x64) AppleWebKit/537.36 (KHTML, like Gecko) draw.io/23.1.5 Chrome/120.0.6099.109 Electron/28.1.0 Safari/537.36" etag="qCWc4vAmAPejiI-djNBm" version="23.1.5" type="device">
  <diagram name="Halaman-1" id="jhKiT7shNILK_LdnaV0b">
    <mxGraphModel dx="1434" dy="836" grid="1" gridSize="10" guides="1" tooltips="1" connect="1" arrows="1" fold="1" page="1" pageScale="1" pageWidth="850" pageHeight="1100" math="0" shadow="0">
      <root>
        <mxCell id="0" />
        <mxCell id="1" parent="0" />
        <mxCell id="7dY4i0Wr1PNaSXAL7cvl-2" style="edgeStyle=orthogonalEdgeStyle;rounded=0;orthogonalLoop=1;jettySize=auto;html=1;exitX=0.5;exitY=1;exitDx=0;exitDy=0;" parent="1" source="7dY4i0Wr1PNaSXAL7cvl-3" target="7dY4i0Wr1PNaSXAL7cvl-5" edge="1">
          <mxGeometry relative="1" as="geometry" />
        </mxCell>
        <mxCell id="7dY4i0Wr1PNaSXAL7cvl-3" value="START" style="ellipse;whiteSpace=wrap;html=1;" parent="1" vertex="1">
          <mxGeometry x="432.5" y="120" width="120" height="80" as="geometry" />
        </mxCell>
        <mxCell id="7dY4i0Wr1PNaSXAL7cvl-4" style="edgeStyle=orthogonalEdgeStyle;rounded=0;orthogonalLoop=1;jettySize=auto;html=1;" parent="1" source="7dY4i0Wr1PNaSXAL7cvl-5" target="7dY4i0Wr1PNaSXAL7cvl-8" edge="1">
          <mxGeometry relative="1" as="geometry" />
        </mxCell>
        <mxCell id="7dY4i0Wr1PNaSXAL7cvl-5" value="INPUT &lt;br&gt;username=$username;&lt;br&gt;password=$password;" style="shape=parallelogram;perimeter=parallelogramPerimeter;whiteSpace=wrap;html=1;fixedSize=1;" parent="1" vertex="1">
          <mxGeometry x="392.5" y="240" width="200" height="80" as="geometry" />
        </mxCell>
        <mxCell id="7dY4i0Wr1PNaSXAL7cvl-6" style="edgeStyle=orthogonalEdgeStyle;rounded=0;orthogonalLoop=1;jettySize=auto;html=1;" parent="1" target="7dY4i0Wr1PNaSXAL7cvl-13" edge="1">
          <mxGeometry relative="1" as="geometry">
            <mxPoint x="492.5" y="520" as="sourcePoint" />
          </mxGeometry>
        </mxCell>
        <mxCell id="7dY4i0Wr1PNaSXAL7cvl-7" style="edgeStyle=orthogonalEdgeStyle;rounded=0;orthogonalLoop=1;jettySize=auto;html=1;" parent="1" source="7dY4i0Wr1PNaSXAL7cvl-8" target="7dY4i0Wr1PNaSXAL7cvl-49" edge="1">
          <mxGeometry relative="1" as="geometry" />
        </mxCell>
        <mxCell id="7dY4i0Wr1PNaSXAL7cvl-8" value="action=&quot;check.php&quot; method=&quot;post&quot;" style="rounded=0;whiteSpace=wrap;html=1;" parent="1" vertex="1">
          <mxGeometry x="432.5" y="360" width="120" height="60" as="geometry" />
        </mxCell>
        <mxCell id="7dY4i0Wr1PNaSXAL7cvl-9" style="edgeStyle=orthogonalEdgeStyle;rounded=0;orthogonalLoop=1;jettySize=auto;html=1;" parent="1" source="7dY4i0Wr1PNaSXAL7cvl-13" target="7dY4i0Wr1PNaSXAL7cvl-15" edge="1">
          <mxGeometry relative="1" as="geometry">
            <mxPoint x="262.5" y="600" as="targetPoint" />
          </mxGeometry>
        </mxCell>
        <mxCell id="7dY4i0Wr1PNaSXAL7cvl-10" value="YES" style="edgeLabel;html=1;align=center;verticalAlign=middle;resizable=0;points=[];" parent="7dY4i0Wr1PNaSXAL7cvl-9" vertex="1" connectable="0">
          <mxGeometry x="0.0233" y="-2" relative="1" as="geometry">
            <mxPoint x="68" y="31" as="offset" />
          </mxGeometry>
        </mxCell>
        <mxCell id="7dY4i0Wr1PNaSXAL7cvl-11" style="edgeStyle=orthogonalEdgeStyle;rounded=0;orthogonalLoop=1;jettySize=auto;html=1;" parent="1" source="7dY4i0Wr1PNaSXAL7cvl-13" target="7dY4i0Wr1PNaSXAL7cvl-17" edge="1">
          <mxGeometry relative="1" as="geometry" />
        </mxCell>
        <mxCell id="7dY4i0Wr1PNaSXAL7cvl-12" value="NO" style="edgeLabel;html=1;align=center;verticalAlign=middle;resizable=0;points=[];" parent="7dY4i0Wr1PNaSXAL7cvl-11" vertex="1" connectable="0">
          <mxGeometry x="-0.4" y="2" relative="1" as="geometry">
            <mxPoint x="-2" y="8" as="offset" />
          </mxGeometry>
        </mxCell>
        <mxCell id="7dY4i0Wr1PNaSXAL7cvl-13" value="if &lt;br&gt;$_SESSION != GURU&lt;div&gt;&lt;br&gt;&lt;/div&gt;" style="rhombus;whiteSpace=wrap;html=1;" parent="1" vertex="1">
          <mxGeometry x="392.5" y="560" width="200" height="90" as="geometry" />
        </mxCell>
        <mxCell id="7dY4i0Wr1PNaSXAL7cvl-14" style="edgeStyle=orthogonalEdgeStyle;rounded=0;orthogonalLoop=1;jettySize=auto;html=1;entryX=0;entryY=0.5;entryDx=0;entryDy=0;exitX=0.5;exitY=0;exitDx=0;exitDy=0;" parent="1" source="7dY4i0Wr1PNaSXAL7cvl-15" target="7dY4i0Wr1PNaSXAL7cvl-5" edge="1">
          <mxGeometry relative="1" as="geometry">
            <Array as="points">
              <mxPoint x="262.5" y="270" />
            </Array>
          </mxGeometry>
        </mxCell>
        <mxCell id="7dY4i0Wr1PNaSXAL7cvl-15" value="alert(&quot;username atau password salah&quot;)" style="rounded=0;whiteSpace=wrap;html=1;" parent="1" vertex="1">
          <mxGeometry x="202.5" y="360" width="120" height="60" as="geometry" />
        </mxCell>
        <mxCell id="7dY4i0Wr1PNaSXAL7cvl-16" style="edgeStyle=orthogonalEdgeStyle;rounded=0;orthogonalLoop=1;jettySize=auto;html=1;" parent="1" source="7dY4i0Wr1PNaSXAL7cvl-17" target="7dY4i0Wr1PNaSXAL7cvl-18" edge="1">
          <mxGeometry relative="1" as="geometry" />
        </mxCell>
        <mxCell id="7dY4i0Wr1PNaSXAL7cvl-17" value="header(&quot;location:guru/dashboard.php&quot;);" style="shape=parallelogram;perimeter=parallelogramPerimeter;whiteSpace=wrap;html=1;fixedSize=1;" parent="1" vertex="1">
          <mxGeometry x="347.5" y="700" width="290" height="60" as="geometry" />
        </mxCell>
        <mxCell id="7dY4i0Wr1PNaSXAL7cvl-18" value="END" style="ellipse;whiteSpace=wrap;html=1;" parent="1" vertex="1">
          <mxGeometry x="432.5" y="820" width="120" height="80" as="geometry" />
        </mxCell>
        <mxCell id="7dY4i0Wr1PNaSXAL7cvl-19" style="edgeStyle=orthogonalEdgeStyle;rounded=0;orthogonalLoop=1;jettySize=auto;html=1;" parent="1" source="7dY4i0Wr1PNaSXAL7cvl-22" target="7dY4i0Wr1PNaSXAL7cvl-24" edge="1">
          <mxGeometry relative="1" as="geometry" />
        </mxCell>
        <mxCell id="7dY4i0Wr1PNaSXAL7cvl-20" style="edgeStyle=orthogonalEdgeStyle;rounded=0;orthogonalLoop=1;jettySize=auto;html=1;" parent="1" target="7dY4i0Wr1PNaSXAL7cvl-26" edge="1">
          <mxGeometry relative="1" as="geometry">
            <mxPoint x="1270" y="230" as="sourcePoint" />
          </mxGeometry>
        </mxCell>
        <mxCell id="7dY4i0Wr1PNaSXAL7cvl-21" style="edgeStyle=orthogonalEdgeStyle;rounded=0;orthogonalLoop=1;jettySize=auto;html=1;" parent="1" target="7dY4i0Wr1PNaSXAL7cvl-28" edge="1">
          <mxGeometry relative="1" as="geometry">
            <mxPoint x="1270" y="230" as="sourcePoint" />
          </mxGeometry>
        </mxCell>
        <mxCell id="7dY4i0Wr1PNaSXAL7cvl-22" value="START" style="ellipse;whiteSpace=wrap;html=1;" parent="1" vertex="1">
          <mxGeometry x="1210" y="120" width="120" height="80" as="geometry" />
        </mxCell>
        <mxCell id="7dY4i0Wr1PNaSXAL7cvl-23" style="edgeStyle=orthogonalEdgeStyle;rounded=0;orthogonalLoop=1;jettySize=auto;html=1;" parent="1" source="7dY4i0Wr1PNaSXAL7cvl-24" target="7dY4i0Wr1PNaSXAL7cvl-32" edge="1">
          <mxGeometry relative="1" as="geometry" />
        </mxCell>
        <mxCell id="7dY4i0Wr1PNaSXAL7cvl-24" value="UPDATE" style="shape=process;whiteSpace=wrap;html=1;backgroundOutline=1;" parent="1" vertex="1">
          <mxGeometry x="1210" y="280" width="120" height="60" as="geometry" />
        </mxCell>
        <mxCell id="7dY4i0Wr1PNaSXAL7cvl-25" style="edgeStyle=orthogonalEdgeStyle;rounded=0;orthogonalLoop=1;jettySize=auto;html=1;" parent="1" source="7dY4i0Wr1PNaSXAL7cvl-26" target="7dY4i0Wr1PNaSXAL7cvl-30" edge="1">
          <mxGeometry relative="1" as="geometry" />
        </mxCell>
        <mxCell id="7dY4i0Wr1PNaSXAL7cvl-26" value="INSERT" style="shape=process;whiteSpace=wrap;html=1;backgroundOutline=1;" parent="1" vertex="1">
          <mxGeometry x="1010" y="280" width="120" height="60" as="geometry" />
        </mxCell>
        <mxCell id="7dY4i0Wr1PNaSXAL7cvl-27" style="edgeStyle=orthogonalEdgeStyle;rounded=0;orthogonalLoop=1;jettySize=auto;html=1;" parent="1" source="7dY4i0Wr1PNaSXAL7cvl-28" target="7dY4i0Wr1PNaSXAL7cvl-34" edge="1">
          <mxGeometry relative="1" as="geometry" />
        </mxCell>
        <mxCell id="7dY4i0Wr1PNaSXAL7cvl-28" value="DELETE" style="shape=process;whiteSpace=wrap;html=1;backgroundOutline=1;" parent="1" vertex="1">
          <mxGeometry x="1415" y="280" width="120" height="60" as="geometry" />
        </mxCell>
        <mxCell id="7dY4i0Wr1PNaSXAL7cvl-29" style="edgeStyle=orthogonalEdgeStyle;rounded=0;orthogonalLoop=1;jettySize=auto;html=1;exitX=0.5;exitY=1;exitDx=0;exitDy=0;" parent="1" source="7dY4i0Wr1PNaSXAL7cvl-30" target="7dY4i0Wr1PNaSXAL7cvl-37" edge="1">
          <mxGeometry relative="1" as="geometry" />
        </mxCell>
        <mxCell id="7dY4i0Wr1PNaSXAL7cvl-30" value="id(auto_increment),&lt;br&gt;nip, nama, mapel, agama, jenisKelamin,&lt;br&gt;tempatLahir, tanggalLahir" style="shape=parallelogram;perimeter=parallelogramPerimeter;whiteSpace=wrap;html=1;fixedSize=1;" parent="1" vertex="1">
          <mxGeometry x="970" y="390" width="200" height="60" as="geometry" />
        </mxCell>
        <mxCell id="7dY4i0Wr1PNaSXAL7cvl-31" style="edgeStyle=orthogonalEdgeStyle;rounded=0;orthogonalLoop=1;jettySize=auto;html=1;" parent="1" source="7dY4i0Wr1PNaSXAL7cvl-32" target="7dY4i0Wr1PNaSXAL7cvl-39" edge="1">
          <mxGeometry relative="1" as="geometry" />
        </mxCell>
        <mxCell id="7dY4i0Wr1PNaSXAL7cvl-32" value="nip, nama, mapel, agama, jenisKelamin,&lt;br&gt;tempatLahir, tanggalLahir" style="shape=parallelogram;perimeter=parallelogramPerimeter;whiteSpace=wrap;html=1;fixedSize=1;" parent="1" vertex="1">
          <mxGeometry x="1170" y="390" width="200" height="60" as="geometry" />
        </mxCell>
        <mxCell id="7dY4i0Wr1PNaSXAL7cvl-33" style="edgeStyle=orthogonalEdgeStyle;rounded=0;orthogonalLoop=1;jettySize=auto;html=1;" parent="1" source="7dY4i0Wr1PNaSXAL7cvl-34" target="7dY4i0Wr1PNaSXAL7cvl-41" edge="1">
          <mxGeometry relative="1" as="geometry" />
        </mxCell>
        <mxCell id="7dY4i0Wr1PNaSXAL7cvl-34" value="select id" style="shape=parallelogram;perimeter=parallelogramPerimeter;whiteSpace=wrap;html=1;fixedSize=1;" parent="1" vertex="1">
          <mxGeometry x="1370.63" y="390" width="208.75" height="60" as="geometry" />
        </mxCell>
        <mxCell id="7dY4i0Wr1PNaSXAL7cvl-35" value="&lt;font style=&quot;font-size: 22px;&quot;&gt;FLOWCHART GURU&lt;/font&gt;" style="text;html=1;align=center;verticalAlign=middle;whiteSpace=wrap;rounded=0;fontStyle=1" parent="1" vertex="1">
          <mxGeometry x="710" y="40" width="290" height="30" as="geometry" />
        </mxCell>
        <mxCell id="7dY4i0Wr1PNaSXAL7cvl-36" style="edgeStyle=orthogonalEdgeStyle;rounded=0;orthogonalLoop=1;jettySize=auto;html=1;" parent="1" source="7dY4i0Wr1PNaSXAL7cvl-37" target="7dY4i0Wr1PNaSXAL7cvl-43" edge="1">
          <mxGeometry relative="1" as="geometry" />
        </mxCell>
        <mxCell id="7dY4i0Wr1PNaSXAL7cvl-37" value="SAVE" style="rounded=0;whiteSpace=wrap;html=1;" parent="1" vertex="1">
          <mxGeometry x="1010" y="490" width="120" height="60" as="geometry" />
        </mxCell>
        <mxCell id="7dY4i0Wr1PNaSXAL7cvl-38" style="edgeStyle=orthogonalEdgeStyle;rounded=0;orthogonalLoop=1;jettySize=auto;html=1;" parent="1" source="7dY4i0Wr1PNaSXAL7cvl-39" target="7dY4i0Wr1PNaSXAL7cvl-47" edge="1">
          <mxGeometry relative="1" as="geometry">
            <mxPoint x="1270" y="610" as="targetPoint" />
          </mxGeometry>
        </mxCell>
        <mxCell id="7dY4i0Wr1PNaSXAL7cvl-39" value="SAVE" style="rounded=0;whiteSpace=wrap;html=1;" parent="1" vertex="1">
          <mxGeometry x="1210" y="490" width="120" height="60" as="geometry" />
        </mxCell>
        <mxCell id="7dY4i0Wr1PNaSXAL7cvl-40" style="edgeStyle=orthogonalEdgeStyle;rounded=0;orthogonalLoop=1;jettySize=auto;html=1;" parent="1" source="7dY4i0Wr1PNaSXAL7cvl-41" target="7dY4i0Wr1PNaSXAL7cvl-45" edge="1">
          <mxGeometry relative="1" as="geometry" />
        </mxCell>
        <mxCell id="7dY4i0Wr1PNaSXAL7cvl-41" value="DELETE" style="rounded=0;whiteSpace=wrap;html=1;" parent="1" vertex="1">
          <mxGeometry x="1415" y="490" width="120" height="60" as="geometry" />
        </mxCell>
        <mxCell id="7dY4i0Wr1PNaSXAL7cvl-42" style="edgeStyle=orthogonalEdgeStyle;rounded=0;orthogonalLoop=1;jettySize=auto;html=1;entryX=0.5;entryY=0;entryDx=0;entryDy=0;" parent="1" source="7dY4i0Wr1PNaSXAL7cvl-43" target="7dY4i0Wr1PNaSXAL7cvl-48" edge="1">
          <mxGeometry relative="1" as="geometry">
            <Array as="points">
              <mxPoint x="1070" y="720" />
              <mxPoint x="1270" y="720" />
            </Array>
          </mxGeometry>
        </mxCell>
        <mxCell id="7dY4i0Wr1PNaSXAL7cvl-43" value="DATABASE" style="strokeWidth=2;html=1;shape=mxgraph.flowchart.database;whiteSpace=wrap;" parent="1" vertex="1">
          <mxGeometry x="1015" y="610" width="110" height="60" as="geometry" />
        </mxCell>
        <mxCell id="7dY4i0Wr1PNaSXAL7cvl-44" style="edgeStyle=orthogonalEdgeStyle;rounded=0;orthogonalLoop=1;jettySize=auto;html=1;" parent="1" source="7dY4i0Wr1PNaSXAL7cvl-45" target="7dY4i0Wr1PNaSXAL7cvl-48" edge="1">
          <mxGeometry relative="1" as="geometry">
            <Array as="points">
              <mxPoint x="1475" y="720" />
              <mxPoint x="1270" y="720" />
            </Array>
          </mxGeometry>
        </mxCell>
        <mxCell id="7dY4i0Wr1PNaSXAL7cvl-45" value="DATABASE" style="strokeWidth=2;html=1;shape=mxgraph.flowchart.database;whiteSpace=wrap;" parent="1" vertex="1">
          <mxGeometry x="1420" y="610" width="110" height="60" as="geometry" />
        </mxCell>
        <mxCell id="7dY4i0Wr1PNaSXAL7cvl-46" style="edgeStyle=orthogonalEdgeStyle;rounded=0;orthogonalLoop=1;jettySize=auto;html=1;" parent="1" source="7dY4i0Wr1PNaSXAL7cvl-47" target="7dY4i0Wr1PNaSXAL7cvl-48" edge="1">
          <mxGeometry relative="1" as="geometry" />
        </mxCell>
        <mxCell id="7dY4i0Wr1PNaSXAL7cvl-47" value="DATABASE" style="strokeWidth=2;html=1;shape=mxgraph.flowchart.database;whiteSpace=wrap;" parent="1" vertex="1">
          <mxGeometry x="1215" y="610" width="110" height="60" as="geometry" />
        </mxCell>
        <mxCell id="7dY4i0Wr1PNaSXAL7cvl-48" value="END" style="ellipse;whiteSpace=wrap;html=1;" parent="1" vertex="1">
          <mxGeometry x="1210" y="760" width="120" height="80" as="geometry" />
        </mxCell>
        <mxCell id="7dY4i0Wr1PNaSXAL7cvl-49" value="DATABASE" style="strokeWidth=2;html=1;shape=mxgraph.flowchart.database;whiteSpace=wrap;" parent="1" vertex="1">
          <mxGeometry x="437.5" y="460" width="110" height="60" as="geometry" />
        </mxCell>
        <mxCell id="7dY4i0Wr1PNaSXAL7cvl-110" value="CRUD DATAGURU" style="text;html=1;align=center;verticalAlign=middle;whiteSpace=wrap;rounded=0;" parent="1" vertex="1">
          <mxGeometry x="1110" y="145" width="60" height="30" as="geometry" />
        </mxCell>
        <mxCell id="7dY4i0Wr1PNaSXAL7cvl-111" value="LOGIN" style="text;html=1;align=center;verticalAlign=middle;whiteSpace=wrap;rounded=0;" parent="1" vertex="1">
          <mxGeometry x="340" y="145" width="60" height="30" as="geometry" />
        </mxCell>
        <mxCell id="7dY4i0Wr1PNaSXAL7cvl-125" style="edgeStyle=orthogonalEdgeStyle;rounded=0;orthogonalLoop=1;jettySize=auto;html=1;" parent="1" source="7dY4i0Wr1PNaSXAL7cvl-121" target="7dY4i0Wr1PNaSXAL7cvl-122" edge="1">
          <mxGeometry relative="1" as="geometry" />
        </mxCell>
        <mxCell id="7dY4i0Wr1PNaSXAL7cvl-121" value="START" style="ellipse;whiteSpace=wrap;html=1;" parent="1" vertex="1">
          <mxGeometry x="370" y="1250" width="120" height="80" as="geometry" />
        </mxCell>
        <mxCell id="7dY4i0Wr1PNaSXAL7cvl-126" style="edgeStyle=orthogonalEdgeStyle;rounded=0;orthogonalLoop=1;jettySize=auto;html=1;" parent="1" source="7dY4i0Wr1PNaSXAL7cvl-122" target="7dY4i0Wr1PNaSXAL7cvl-123" edge="1">
          <mxGeometry relative="1" as="geometry" />
        </mxCell>
        <mxCell id="7dY4i0Wr1PNaSXAL7cvl-122" value="&lt;br&gt;KLIK LOGOUT" style="shape=manualInput;whiteSpace=wrap;html=1;" parent="1" vertex="1">
          <mxGeometry x="357.5" y="1360" width="145" height="80" as="geometry" />
        </mxCell>
        <mxCell id="7dY4i0Wr1PNaSXAL7cvl-129" style="edgeStyle=orthogonalEdgeStyle;rounded=0;orthogonalLoop=1;jettySize=auto;html=1;" parent="1" source="7dY4i0Wr1PNaSXAL7cvl-123" target="7dY4i0Wr1PNaSXAL7cvl-127" edge="1">
          <mxGeometry relative="1" as="geometry" />
        </mxCell>
        <mxCell id="7dY4i0Wr1PNaSXAL7cvl-123" value="session_start();&lt;br&gt;session_unset();&lt;br&gt;session_destroy();" style="rounded=0;whiteSpace=wrap;html=1;" parent="1" vertex="1">
          <mxGeometry x="360.25" y="1480" width="139.5" height="60" as="geometry" />
        </mxCell>
        <mxCell id="7dY4i0Wr1PNaSXAL7cvl-131" style="edgeStyle=orthogonalEdgeStyle;rounded=0;orthogonalLoop=1;jettySize=auto;html=1;" parent="1" source="7dY4i0Wr1PNaSXAL7cvl-127" target="7dY4i0Wr1PNaSXAL7cvl-130" edge="1">
          <mxGeometry relative="1" as="geometry" />
        </mxCell>
        <mxCell id="7dY4i0Wr1PNaSXAL7cvl-127" value="header(&quot;location:index.php&quot;);" style="shape=parallelogram;perimeter=parallelogramPerimeter;whiteSpace=wrap;html=1;fixedSize=1;" parent="1" vertex="1">
          <mxGeometry x="322.5" y="1580" width="215" height="60" as="geometry" />
        </mxCell>
        <mxCell id="7dY4i0Wr1PNaSXAL7cvl-130" value="END" style="ellipse;whiteSpace=wrap;html=1;" parent="1" vertex="1">
          <mxGeometry x="370" y="1680" width="120" height="80" as="geometry" />
        </mxCell>
        <mxCell id="7dY4i0Wr1PNaSXAL7cvl-132" value="LOGOUT" style="text;html=1;align=center;verticalAlign=middle;whiteSpace=wrap;rounded=0;" parent="1" vertex="1">
          <mxGeometry x="263" y="1270" width="60" height="30" as="geometry" />
        </mxCell>
        <mxCell id="MPM3UFvQM2jCZIdIPcRH-1" style="edgeStyle=orthogonalEdgeStyle;rounded=0;orthogonalLoop=1;jettySize=auto;html=1;" parent="1" source="MPM3UFvQM2jCZIdIPcRH-4" target="MPM3UFvQM2jCZIdIPcRH-6" edge="1">
          <mxGeometry relative="1" as="geometry" />
        </mxCell>
        <mxCell id="MPM3UFvQM2jCZIdIPcRH-2" style="edgeStyle=orthogonalEdgeStyle;rounded=0;orthogonalLoop=1;jettySize=auto;html=1;" parent="1" target="MPM3UFvQM2jCZIdIPcRH-8" edge="1">
          <mxGeometry relative="1" as="geometry">
            <mxPoint x="1270" y="1340" as="sourcePoint" />
          </mxGeometry>
        </mxCell>
        <mxCell id="MPM3UFvQM2jCZIdIPcRH-3" style="edgeStyle=orthogonalEdgeStyle;rounded=0;orthogonalLoop=1;jettySize=auto;html=1;" parent="1" target="MPM3UFvQM2jCZIdIPcRH-10" edge="1">
          <mxGeometry relative="1" as="geometry">
            <mxPoint x="1270" y="1340" as="sourcePoint" />
          </mxGeometry>
        </mxCell>
        <mxCell id="MPM3UFvQM2jCZIdIPcRH-4" value="START" style="ellipse;whiteSpace=wrap;html=1;" parent="1" vertex="1">
          <mxGeometry x="1210" y="1230" width="120" height="80" as="geometry" />
        </mxCell>
        <mxCell id="MPM3UFvQM2jCZIdIPcRH-5" style="edgeStyle=orthogonalEdgeStyle;rounded=0;orthogonalLoop=1;jettySize=auto;html=1;" parent="1" source="MPM3UFvQM2jCZIdIPcRH-6" target="MPM3UFvQM2jCZIdIPcRH-14" edge="1">
          <mxGeometry relative="1" as="geometry" />
        </mxCell>
        <mxCell id="MPM3UFvQM2jCZIdIPcRH-6" value="UPDATE" style="shape=process;whiteSpace=wrap;html=1;backgroundOutline=1;" parent="1" vertex="1">
          <mxGeometry x="1210" y="1390" width="120" height="60" as="geometry" />
        </mxCell>
        <mxCell id="MPM3UFvQM2jCZIdIPcRH-7" style="edgeStyle=orthogonalEdgeStyle;rounded=0;orthogonalLoop=1;jettySize=auto;html=1;" parent="1" source="MPM3UFvQM2jCZIdIPcRH-8" target="MPM3UFvQM2jCZIdIPcRH-12" edge="1">
          <mxGeometry relative="1" as="geometry" />
        </mxCell>
        <mxCell id="MPM3UFvQM2jCZIdIPcRH-8" value="INSERT" style="shape=process;whiteSpace=wrap;html=1;backgroundOutline=1;" parent="1" vertex="1">
          <mxGeometry x="1010" y="1390" width="120" height="60" as="geometry" />
        </mxCell>
        <mxCell id="MPM3UFvQM2jCZIdIPcRH-9" style="edgeStyle=orthogonalEdgeStyle;rounded=0;orthogonalLoop=1;jettySize=auto;html=1;" parent="1" source="MPM3UFvQM2jCZIdIPcRH-10" target="MPM3UFvQM2jCZIdIPcRH-16" edge="1">
          <mxGeometry relative="1" as="geometry" />
        </mxCell>
        <mxCell id="MPM3UFvQM2jCZIdIPcRH-10" value="DELETE" style="shape=process;whiteSpace=wrap;html=1;backgroundOutline=1;" parent="1" vertex="1">
          <mxGeometry x="1415" y="1390" width="120" height="60" as="geometry" />
        </mxCell>
        <mxCell id="MPM3UFvQM2jCZIdIPcRH-11" style="edgeStyle=orthogonalEdgeStyle;rounded=0;orthogonalLoop=1;jettySize=auto;html=1;exitX=0.5;exitY=1;exitDx=0;exitDy=0;" parent="1" source="MPM3UFvQM2jCZIdIPcRH-12" target="MPM3UFvQM2jCZIdIPcRH-18" edge="1">
          <mxGeometry relative="1" as="geometry" />
        </mxCell>
        <mxCell id="MPM3UFvQM2jCZIdIPcRH-12" value="id(auto_increment), nis, &lt;br&gt;nama, kelas, agama, jenisKelamin, tempatLahir, tanggalLahir" style="shape=parallelogram;perimeter=parallelogramPerimeter;whiteSpace=wrap;html=1;fixedSize=1;" parent="1" vertex="1">
          <mxGeometry x="970" y="1500" width="200" height="60" as="geometry" />
        </mxCell>
        <mxCell id="MPM3UFvQM2jCZIdIPcRH-13" style="edgeStyle=orthogonalEdgeStyle;rounded=0;orthogonalLoop=1;jettySize=auto;html=1;" parent="1" source="MPM3UFvQM2jCZIdIPcRH-14" target="MPM3UFvQM2jCZIdIPcRH-20" edge="1">
          <mxGeometry relative="1" as="geometry" />
        </mxCell>
        <mxCell id="MPM3UFvQM2jCZIdIPcRH-14" value="nis, nama, kelas, agama, jenisKelamin,&lt;br&gt;tempatLahir, tanggalLahir" style="shape=parallelogram;perimeter=parallelogramPerimeter;whiteSpace=wrap;html=1;fixedSize=1;" parent="1" vertex="1">
          <mxGeometry x="1170" y="1500" width="200" height="60" as="geometry" />
        </mxCell>
        <mxCell id="MPM3UFvQM2jCZIdIPcRH-15" style="edgeStyle=orthogonalEdgeStyle;rounded=0;orthogonalLoop=1;jettySize=auto;html=1;" parent="1" source="MPM3UFvQM2jCZIdIPcRH-16" target="MPM3UFvQM2jCZIdIPcRH-22" edge="1">
          <mxGeometry relative="1" as="geometry" />
        </mxCell>
        <mxCell id="MPM3UFvQM2jCZIdIPcRH-16" value="select id" style="shape=parallelogram;perimeter=parallelogramPerimeter;whiteSpace=wrap;html=1;fixedSize=1;" parent="1" vertex="1">
          <mxGeometry x="1370.63" y="1500" width="208.75" height="60" as="geometry" />
        </mxCell>
        <mxCell id="MPM3UFvQM2jCZIdIPcRH-17" style="edgeStyle=orthogonalEdgeStyle;rounded=0;orthogonalLoop=1;jettySize=auto;html=1;" parent="1" source="MPM3UFvQM2jCZIdIPcRH-18" target="MPM3UFvQM2jCZIdIPcRH-24" edge="1">
          <mxGeometry relative="1" as="geometry" />
        </mxCell>
        <mxCell id="MPM3UFvQM2jCZIdIPcRH-18" value="SAVE" style="rounded=0;whiteSpace=wrap;html=1;" parent="1" vertex="1">
          <mxGeometry x="1010" y="1600" width="120" height="60" as="geometry" />
        </mxCell>
        <mxCell id="MPM3UFvQM2jCZIdIPcRH-19" style="edgeStyle=orthogonalEdgeStyle;rounded=0;orthogonalLoop=1;jettySize=auto;html=1;" parent="1" source="MPM3UFvQM2jCZIdIPcRH-20" target="MPM3UFvQM2jCZIdIPcRH-28" edge="1">
          <mxGeometry relative="1" as="geometry">
            <mxPoint x="1270" y="1720" as="targetPoint" />
          </mxGeometry>
        </mxCell>
        <mxCell id="MPM3UFvQM2jCZIdIPcRH-20" value="SAVE" style="rounded=0;whiteSpace=wrap;html=1;" parent="1" vertex="1">
          <mxGeometry x="1210" y="1600" width="120" height="60" as="geometry" />
        </mxCell>
        <mxCell id="MPM3UFvQM2jCZIdIPcRH-21" style="edgeStyle=orthogonalEdgeStyle;rounded=0;orthogonalLoop=1;jettySize=auto;html=1;" parent="1" source="MPM3UFvQM2jCZIdIPcRH-22" target="MPM3UFvQM2jCZIdIPcRH-26" edge="1">
          <mxGeometry relative="1" as="geometry" />
        </mxCell>
        <mxCell id="MPM3UFvQM2jCZIdIPcRH-22" value="DELETE" style="rounded=0;whiteSpace=wrap;html=1;" parent="1" vertex="1">
          <mxGeometry x="1415" y="1600" width="120" height="60" as="geometry" />
        </mxCell>
        <mxCell id="MPM3UFvQM2jCZIdIPcRH-23" style="edgeStyle=orthogonalEdgeStyle;rounded=0;orthogonalLoop=1;jettySize=auto;html=1;entryX=0.5;entryY=0;entryDx=0;entryDy=0;" parent="1" source="MPM3UFvQM2jCZIdIPcRH-24" target="MPM3UFvQM2jCZIdIPcRH-29" edge="1">
          <mxGeometry relative="1" as="geometry">
            <Array as="points">
              <mxPoint x="1070" y="1830" />
              <mxPoint x="1270" y="1830" />
            </Array>
          </mxGeometry>
        </mxCell>
        <mxCell id="MPM3UFvQM2jCZIdIPcRH-24" value="DATABASE" style="strokeWidth=2;html=1;shape=mxgraph.flowchart.database;whiteSpace=wrap;" parent="1" vertex="1">
          <mxGeometry x="1015" y="1720" width="110" height="60" as="geometry" />
        </mxCell>
        <mxCell id="MPM3UFvQM2jCZIdIPcRH-25" style="edgeStyle=orthogonalEdgeStyle;rounded=0;orthogonalLoop=1;jettySize=auto;html=1;" parent="1" source="MPM3UFvQM2jCZIdIPcRH-26" target="MPM3UFvQM2jCZIdIPcRH-29" edge="1">
          <mxGeometry relative="1" as="geometry">
            <Array as="points">
              <mxPoint x="1475" y="1830" />
              <mxPoint x="1270" y="1830" />
            </Array>
          </mxGeometry>
        </mxCell>
        <mxCell id="MPM3UFvQM2jCZIdIPcRH-26" value="DATABASE" style="strokeWidth=2;html=1;shape=mxgraph.flowchart.database;whiteSpace=wrap;" parent="1" vertex="1">
          <mxGeometry x="1420" y="1720" width="110" height="60" as="geometry" />
        </mxCell>
        <mxCell id="MPM3UFvQM2jCZIdIPcRH-27" style="edgeStyle=orthogonalEdgeStyle;rounded=0;orthogonalLoop=1;jettySize=auto;html=1;" parent="1" source="MPM3UFvQM2jCZIdIPcRH-28" target="MPM3UFvQM2jCZIdIPcRH-29" edge="1">
          <mxGeometry relative="1" as="geometry" />
        </mxCell>
        <mxCell id="MPM3UFvQM2jCZIdIPcRH-28" value="DATABASE" style="strokeWidth=2;html=1;shape=mxgraph.flowchart.database;whiteSpace=wrap;" parent="1" vertex="1">
          <mxGeometry x="1215" y="1720" width="110" height="60" as="geometry" />
        </mxCell>
        <mxCell id="MPM3UFvQM2jCZIdIPcRH-29" value="END" style="ellipse;whiteSpace=wrap;html=1;" parent="1" vertex="1">
          <mxGeometry x="1210" y="1870" width="120" height="80" as="geometry" />
        </mxCell>
        <mxCell id="MPM3UFvQM2jCZIdIPcRH-30" value="CRUD datasiswa" style="text;html=1;align=center;verticalAlign=middle;whiteSpace=wrap;rounded=0;" parent="1" vertex="1">
          <mxGeometry x="1125" y="1255" width="60" height="30" as="geometry" />
        </mxCell>
        <mxCell id="Yf-bqF0_KcudpbahM5bq-1" style="edgeStyle=orthogonalEdgeStyle;rounded=0;orthogonalLoop=1;jettySize=auto;html=1;exitX=0.5;exitY=1;exitDx=0;exitDy=0;" parent="1" source="Yf-bqF0_KcudpbahM5bq-2" target="Yf-bqF0_KcudpbahM5bq-4" edge="1">
          <mxGeometry relative="1" as="geometry" />
        </mxCell>
        <mxCell id="Yf-bqF0_KcudpbahM5bq-2" value="START" style="ellipse;whiteSpace=wrap;html=1;" parent="1" vertex="1">
          <mxGeometry x="1180" y="2275" width="120" height="80" as="geometry" />
        </mxCell>
        <mxCell id="Yf-bqF0_KcudpbahM5bq-3" style="edgeStyle=orthogonalEdgeStyle;rounded=0;orthogonalLoop=1;jettySize=auto;html=1;" parent="1" source="Yf-bqF0_KcudpbahM5bq-4" target="Yf-bqF0_KcudpbahM5bq-8" edge="1">
          <mxGeometry relative="1" as="geometry" />
        </mxCell>
        <mxCell id="Yf-bqF0_KcudpbahM5bq-4" value="PRINT" style="shape=process;whiteSpace=wrap;html=1;backgroundOutline=1;" parent="1" vertex="1">
          <mxGeometry x="1180" y="2400" width="120" height="60" as="geometry" />
        </mxCell>
        <mxCell id="Yf-bqF0_KcudpbahM5bq-5" style="edgeStyle=orthogonalEdgeStyle;rounded=0;orthogonalLoop=1;jettySize=auto;html=1;" parent="1" source="Yf-bqF0_KcudpbahM5bq-6" target="Yf-bqF0_KcudpbahM5bq-10" edge="1">
          <mxGeometry relative="1" as="geometry" />
        </mxCell>
        <mxCell id="Yf-bqF0_KcudpbahM5bq-6" value="PREVIEW DATA" style="shape=parallelogram;perimeter=parallelogramPerimeter;whiteSpace=wrap;html=1;fixedSize=1;" parent="1" vertex="1">
          <mxGeometry x="1165" y="2620" width="150" height="60" as="geometry" />
        </mxCell>
        <mxCell id="Yf-bqF0_KcudpbahM5bq-7" style="edgeStyle=orthogonalEdgeStyle;rounded=0;orthogonalLoop=1;jettySize=auto;html=1;" parent="1" source="Yf-bqF0_KcudpbahM5bq-8" target="Yf-bqF0_KcudpbahM5bq-6" edge="1">
          <mxGeometry relative="1" as="geometry" />
        </mxCell>
        <mxCell id="Yf-bqF0_KcudpbahM5bq-8" value="DATABASE" style="shape=cylinder3;whiteSpace=wrap;html=1;boundedLbl=1;backgroundOutline=1;size=15;" parent="1" vertex="1">
          <mxGeometry x="1185" y="2500" width="110" height="80" as="geometry" />
        </mxCell>
        <mxCell id="Yf-bqF0_KcudpbahM5bq-9" style="edgeStyle=orthogonalEdgeStyle;rounded=0;orthogonalLoop=1;jettySize=auto;html=1;" parent="1" source="Yf-bqF0_KcudpbahM5bq-10" target="Yf-bqF0_KcudpbahM5bq-11" edge="1">
          <mxGeometry relative="1" as="geometry" />
        </mxCell>
        <mxCell id="Yf-bqF0_KcudpbahM5bq-10" value="DOWNLOAD" style="rounded=0;whiteSpace=wrap;html=1;" parent="1" vertex="1">
          <mxGeometry x="1180" y="2730" width="120" height="60" as="geometry" />
        </mxCell>
        <mxCell id="Yf-bqF0_KcudpbahM5bq-11" value="END" style="ellipse;whiteSpace=wrap;html=1;" parent="1" vertex="1">
          <mxGeometry x="1180" y="2840" width="120" height="80" as="geometry" />
        </mxCell>
      </root>
    </mxGraphModel>
  </diagram>
</mxfile>
